<svg width="99" height="28" viewBox="0 0 99 28" fill="none" xmlns="http://www.w3.org/2000/svg">
<path d="M0.192203 22.6414H0.92201V27.8742H0.192203V22.6414ZM5.25793 22.517C6.40272 22.517 7.3529 23.1035 7.5146 24.2175H6.78623C6.62453 23.4766 6.02351 23.1021 5.25077 23.1021C3.9457 23.1021 3.39048 24.1273 3.39048 25.2195C3.39048 26.4143 3.94284 27.4067 5.25077 27.4067C6.20238 27.4067 6.76906 26.7615 6.82486 25.903H7.55324C7.41014 27.2153 6.57158 27.9986 5.18351 27.9986C3.48778 27.9986 2.65065 26.7971 2.65065 25.2715C2.65065 23.7459 3.57078 22.517 5.25793 22.517ZM9.26471 22.6414H9.99309V24.8915H12.8751V22.6414H13.6078V27.8742H12.878V25.4779H9.99023V27.8742H9.26185L9.26471 22.6414ZM18.5104 22.6414H19.2387V27.2892H22.1365V27.8756H18.5075L18.5104 22.6414ZM23.5933 22.6414H24.3231V27.8742H23.5933V22.6414ZM26.3351 22.6414H30.1172V23.2278H27.0591V24.8915H29.9068V25.4779H27.0591V27.2892H30.1358V27.8756H26.3293L26.3351 22.6414ZM31.81 22.6414H33.7977C34.2728 22.6414 34.9253 22.6414 35.2473 22.8314C35.4475 22.9417 35.6129 23.1015 35.7262 23.2939C35.8395 23.4863 35.8965 23.7043 35.8912 23.925C35.9024 24.1774 35.8298 24.4267 35.6838 24.6373C35.5379 24.8479 35.326 25.0091 35.0784 25.0979V25.1129C35.7539 25.2496 36.1216 25.7281 36.1216 26.3733C36.1216 27.1361 35.5392 27.877 34.4574 27.877H31.81V22.6414ZM33.9966 24.8915C34.8251 24.8915 35.1629 24.6181 35.1629 24.0562C35.1629 23.3235 34.6334 23.2278 33.9966 23.2278H32.5356V24.8915H33.9966ZM34.3572 27.2892C34.994 27.2892 35.3847 26.9296 35.3847 26.3514C35.3847 25.6679 34.8123 25.4793 34.1955 25.4793H32.5356V27.2905L34.3572 27.2892ZM37.8445 22.6414H41.6267V23.2278H38.5786V24.8915H41.4263V25.4779H38.5786V27.2892H41.6553V27.8756H37.8488L37.8445 22.6414ZM46.2388 22.6414H48.64C49.7375 22.6414 50.3214 23.2128 50.3214 24.1875C50.3214 25.1621 49.7375 25.7417 48.64 25.7335H46.9729V27.8742H46.2445L46.2388 22.6414ZM46.9729 25.1526H48.4039C49.2324 25.1594 49.6002 24.8149 49.6002 24.1957C49.6002 23.5764 49.2324 23.2388 48.4039 23.2388H46.9729V25.1526ZM52.0028 22.6455H55.7849V23.2319H52.7312V24.8956H55.5789V25.482H52.7312V27.2933H55.8078V27.8797H52.0014L52.0028 22.6455ZM57.4778 22.6455H60.0536C61.0896 22.6455 61.7178 23.1732 61.7178 24.0125C61.7178 24.6495 61.4316 25.1635 60.7662 25.3385V25.3535C61.403 25.4711 61.5261 25.9249 61.5862 26.4307C61.6248 26.9365 61.6019 27.5243 61.9082 27.8742H61.0939C60.8879 27.661 61.0023 27.0978 60.895 26.5838C60.8106 26.078 60.6889 25.6378 59.982 25.6378H58.2062V27.8729H57.4778V22.6455ZM59.7259 25.0569C60.4013 25.0569 60.9923 24.8874 60.9923 24.126C60.9923 23.6051 60.7061 23.2319 60.0178 23.2319H58.2062V25.0569H59.7259ZM63.5209 22.6455H67.1184V23.2319H64.2507V24.8956H66.7678V25.482H64.2507V27.8783H63.5209V22.6455ZM68.7125 22.6455H72.4947V23.2319H69.4409V24.8956H72.2872V25.482H69.4409V27.2933H72.5176V27.8797H68.7125V22.6455ZM74.1875 22.6455H74.9159V25.2551L77.6935 22.6455H78.6379L76.3283 24.752L78.7309 27.8742H77.8094L75.8303 25.2277L74.9173 26.0479V27.8811H74.1889L74.1875 22.6455ZM81.2938 23.2278H79.4636V22.6414H83.8453V23.2278H82.0179V27.8756H81.2938V23.2278ZM85.272 22.6414H86.0018V27.8742H85.272V22.6414ZM90.3306 22.517C92.0735 22.517 92.955 23.8293 92.955 25.2578C92.955 26.6863 92.0735 27.9986 90.3306 27.9986C88.5876 27.9986 87.7076 26.6863 87.7076 25.2578C87.7076 23.8293 88.5848 22.517 90.3263 22.517H90.3306ZM90.3306 27.4136C91.6657 27.4136 92.2267 26.32 92.2267 25.2592C92.2267 24.1984 91.6614 23.1021 90.3263 23.1021C88.9912 23.1021 88.4316 24.1957 88.4316 25.2565C88.4316 26.3172 88.9912 27.4122 90.3263 27.4122L90.3306 27.4136ZM94.6236 22.6428H95.3977L98.2826 26.8804H98.2969V22.6428H98.9867V27.8756H98.1882L95.3262 23.6762H95.3176V27.8756H94.6279L94.6236 22.6428ZM27.0477 12.3289L24.0011 17.4974H19.5192L24.4705 10.2223L19.9042 3.55417H24.5034L27.1107 8.27164L29.7423 3.55417H34.2241L29.5662 10.1977L34.4588 17.4974H29.8896L27.0477 12.3289ZM43.5685 3.17825C45.1111 3.17825 46.3218 3.41519 47.2004 3.88908C48.0101 4.30044 48.6921 4.90815 49.178 5.65113C49.6102 6.33196 49.8895 7.09122 49.998 7.88068C50.0992 8.58247 50.1532 9.28975 50.1597 9.99814V11.4472H40.7266C40.7266 12.5407 41.0051 13.3609 41.5623 13.9077C42.1194 14.4545 43.0424 14.7316 44.3312 14.7389C45.1189 14.7381 45.9042 14.657 46.6738 14.4969C47.4522 14.337 48.2174 14.1232 48.9634 13.8572L49.812 16.3492C48.8694 16.8503 47.8521 17.2108 46.7954 17.4182C45.7834 17.62 44.7526 17.7235 43.7188 17.7271C42.2735 17.7271 41.0843 17.533 40.1513 17.1448C39.2888 16.8076 38.5314 16.2644 37.9519 15.5673C37.4125 14.8915 37.0354 14.1108 36.8471 13.2803C36.6389 12.3794 36.5362 11.4593 36.5409 10.5367C36.546 9.71467 36.642 8.8954 36.8271 8.09256C37.0159 7.23531 37.3844 6.42342 37.9104 5.7058C38.4724 4.95577 39.2066 4.33854 40.0569 3.90138C40.9727 3.41929 42.1433 3.17825 43.5685 3.17825ZM43.7302 5.76459C43.2742 5.74842 42.8205 5.83408 42.4051 6.01474C42.0615 6.17756 41.7636 6.41661 41.5365 6.71191C41.3028 7.02094 41.1284 7.36715 41.0214 7.73441C40.9021 8.12902 40.8231 8.53371 40.7852 8.94283H46.3518C46.3318 8.0151 46.141 7.25278 45.7794 6.65586C45.4178 6.05894 44.7348 5.76185 43.7302 5.76459ZM63.02 17.4974V8.86218C63.0218 8.52962 63.0022 8.19727 62.9614 7.86701C62.9279 7.58504 62.8302 7.31348 62.6752 7.07142C62.523 6.83997 62.3024 6.65682 62.0412 6.54514C61.6959 6.40933 61.324 6.34638 60.9508 6.36059C60.3867 6.37396 59.8292 6.47937 59.3023 6.67227C58.7278 6.86541 58.1751 7.11317 57.6524 7.41181V17.4974H53.471V3.55417H57.4263L57.485 4.8323L57.6023 4.88971C58.4191 4.34965 59.3137 3.926 60.2582 3.63209C61.0417 3.37261 61.8621 3.22923 62.6909 3.20695C63.6506 3.20695 64.4243 3.33454 65.012 3.58971C65.5565 3.81251 66.0285 4.17082 66.3786 4.62725C66.7119 5.0871 66.9374 5.61027 67.0397 6.16101C67.1589 6.76997 67.2178 7.3883 67.2157 8.00781V17.4974H63.02ZM98.9824 6.99897H85.2076V10.5039H98.9824V6.99897ZM98.9824 13.9952H85.2076V17.4974H98.9824V13.9952ZM98.9824 0H85.2076V3.50769H98.9824V0ZM79.704 14.4409C79.4617 14.4864 79.2318 14.5261 79.0143 14.5598C78.666 14.6191 78.3134 14.6525 77.9596 14.6596C77.2174 14.6596 76.7094 14.4846 76.4356 14.1346C76.1618 13.7847 76.0249 13.2379 76.0249 12.4943V0H71.8965V13.5783C71.894 14.1112 71.9676 14.6419 72.1154 15.1558C72.2572 15.6506 72.524 16.1045 72.8925 16.4777C73.3183 16.8909 73.8398 17.2028 74.4151 17.3881C75.06 17.615 75.8804 17.7285 76.8764 17.7285C77.5648 17.7222 78.2512 17.6559 78.927 17.5302C79.1946 17.4824 79.4522 17.4223 79.704 17.358V14.4409ZM79.704 3.54733H70.0548V7.05229H79.704V3.54733ZM11.3482 0H7.38438L0.0133286 17.4619H4.3149L5.77165 13.5824H12.961L14.4177 17.4619H18.7193L11.3482 0ZM6.80769 10.7432L9.36345 3.94513L11.9264 10.7432H6.80769Z" fill="#6B003E"/>
</svg>
